<?xml version="1.0" encoding="UTF-8" standalone="no"?>
<svg
   width="1836"
   height="1360"
   viewBox="0 0 1836 1360"
   version="1.1"
   id="svg3512"
   sodipodi:docname="field.svg"
   inkscape:version="1.2.2 (1:1.2.2+202212051552+b0a8486541)"
   xmlns:inkscape="http://www.inkscape.org/namespaces/inkscape"
   xmlns:sodipodi="http://sodipodi.sourceforge.net/DTD/sodipodi-0.dtd"
   xmlns="http://www.w3.org/2000/svg"
   xmlns:svg="http://www.w3.org/2000/svg">
  <defs
     id="defs3516" />
  <sodipodi:namedview
     id="namedview3514"
     pagecolor="#ffffff"
     bordercolor="#000000"
     borderopacity="0.25"
     inkscape:showpageshadow="2"
     inkscape:pageopacity="0.0"
     inkscape:pagecheckerboard="0"
     inkscape:deskcolor="#d1d1d1"
     showgrid="false"
     inkscape:zoom="0.50568148"
     inkscape:cx="489.43853"
     inkscape:cy="1108.4052"
     inkscape:window-width="2560"
     inkscape:window-height="1380"
     inkscape:window-x="0"
     inkscape:window-y="28"
     inkscape:window-maximized="1"
     inkscape:current-layer="svg3512" />
  <path
     d="M 227.90744,970.78254 C 140.17475,965.40908 68.724203,999.92592 0.02313036,1002.0178 0.02313036,1111.9475 0,1243.2852 0,1360 h 422.035 422.036 l 13.214,-6.387 c 128.04846,-51.6897 227.5068,-104.1393 346.9387,-146.1111 4.5894,-1.6711 8.26,-2.678 13.503,-4.7526 l 9.1709,-2.9814 -12.0986,0.2721 -4.498,-0.3952 -5.502,-0.7478 -5.299,-1.103 -6.5,-1.942 C 1028.8978,1165.4425 898.7052,1087.1918 742,1046.936 673.46849,1026.0934 595.79108,1007.0394 537,995.053 l -5.5,-1.112 -3.5,-0.221 -3.5,-0.22 -0.5,-0.539 -0.5,-0.538 -11.5,-2.161 -11.5,-2.16 -6.75,-1.051 L 487,986 l -6.25,-0.99 -6.25,-0.99 -14,-1.909 -14,-1.908 -9.5,-1.087 -9.5,-1.086 -9,-0.974 -9,-0.974 -13.5,-1.087 -13.5,-1.087 -10.5,-1.014 -10.5,-1.013 -53.5,-0.342 -53.5,-0.342"
     stroke="none"
     fill="#c2dd38"
     fill-rule="evenodd"
     id="path3504"
     sodipodi:nodetypes="ccccccccccccccccccccccccccccccccccccccc" />
  <path
     d="m 246.5,267.516 -9,1.24 -7,1.717 -7,1.717 -9,2.993 -9,2.994 -10.067,4.763 -10.067,4.763 -9.433,6.314 -9.433,6.314 -0.5,0.59 -0.5,0.59 -4,2.936 -4,2.935 -9.018,9.072 -9.018,9.072 -2.977,3.987 -2.976,3.987 -0.628,0.5 -0.627,0.5 -5.872,9 -5.871,9 -1.728,3 -1.727,3 -2.912,6 -2.912,6 -1.5,3.5 -1.5,3.5 -1.067,3 -1.067,3 -1.608,5.5 -1.608,5.5 -1.023,5.5 -1.023,5.5 -1.383,8.5 -1.384,8.5 -0.036,14.119 -0.035,14.118 -16.125,-0.514 -16.124,-0.515 -10.126,1.271 -10.125,1.271 -6.5,1.448 -6.5,1.448 -3.5,0.815 -3.5,0.816 -6.284,2.081 -6.284,2.081 -3.216,1.413 L 6.5,463.766 3.25,465.004 0,466.243 V 734.121 C 0,823.414 8.7251073,924.12012 0,1002 h 1.057 1.057 l 4.193,-0.923 4.193,-0.924 10.5,-2.037 10.5,-2.037 11.5,-2.108 11.5,-2.108 4.5,-0.872 4.5,-0.871 6.5,-1.05 6.5,-1.051 12,-1.971 12,-1.972 11.5,-1.616 11.5,-1.615 8,-0.818 8,-0.818 14,-1.535 14,-1.534 14,-1.067 14,-1.067 14.5,-1.192 14.5,-1.192 67,-0.05 67,-0.05 12.5,1.236 12.5,1.235 13,1.045 13,1.044 9,0.974 9,0.974 9.5,1.097 9.5,1.096 17.5,2.468 17.5,2.468 5.5,0.839 5.5,0.839 4.5,0.673 4.5,0.674 15,2.89 15,2.891 4.5,0.951 4.5,0.951 3.821,0.625 3.821,0.625 1.429,0.549 1.429,0.548 V 997.107 996 h -1.09 -1.089 l -1.661,-1.911 -1.66,-1.911 -15,-9.938 -15,-9.938 -13,-6.419 -13,-6.418 -4.125,-1.75 -4.126,-1.75 -7.243,-2.53 -7.243,-2.531 -11.592,-2.989 -11.592,-2.989 -12.53,-2.537 -12.53,-2.537 -0.389,-0.389 -0.389,-0.389 c -1.04012,-28.19666 -4.69354,-57.32594 -9.73,-81.074 l -0.748,-3.5 -0.737,-2.741 -0.738,-2.74 1.856,-0.707 1.856,-0.706 C 471.8142,691.75856 516.09839,604.29756 406.087,538 H 405.044 404 v -1.429 -1.43 l 3.836,-5.82 3.835,-5.821 6.114,-12.5 6.114,-12.5 1.43,-3.5 1.43,-3.5 2.064,-6.5 2.064,-6.5 1.487,-6.5 1.487,-6.5 1.005,-5 1.006,-5 0.564,-9 0.563,-9 -1.005,-13 -1.006,-13 -1.905,-9 -1.905,-9 -1.609,-6 -1.61,-6 -2.077,-5.5 -2.077,-5.5 -0.832,-2 -0.833,-2 -3.081,-6.665 -3.08,-6.666 -4.123,-6.786 -4.123,-6.786 -4.616,-5.947 -4.617,-5.948 -8,-8.46 -8,-8.459 -8.5,-6.758 -8.5,-6.757 -7.206,-4.6 -7.206,-4.599 -7.023,-3.536 -7.023,-3.537 -7.271,-2.871 -7.271,-2.871 -9,-2.518 -9,-2.519 -6.5,-1.11 -6.5,-1.109 -8.474,-0.999 -8.474,-0.999 -9.526,0.138 -9.526,0.138 -9,1.24 m 1458,250.175 -5,0.346 -9.311,1.538 -9.311,1.539 -5.189,1.555 -5.189,1.556 -5.5,2.007 -5.5,2.007 -6.5,3.026 -6.5,3.025 -7.5,5.01 -7.5,5.01 -8.094,6.764 -8.095,6.764 -5.462,6.331 -5.462,6.331 -2.997,4 -2.997,4 -4.115,7 -4.114,7 -2.049,4.5 -2.049,4.5 -3.467,10.5 -3.466,10.5 -1.77,10 -1.77,10 0.056,16 0.056,16 2.605,10 2.606,10 1.963,6.134 1.964,6.135 4.638,9.534 4.638,9.534 3.166,4.831 3.167,4.832 1.274,1.321 1.274,1.322 v 0.388 0.388 l -6.989,3.507 -6.99,3.508 -8.76,5.914 -8.761,5.915 -6.551,5.868 -6.551,5.869 -4.449,5 -4.449,5 -0.585,0.5 -0.584,0.5 -5.176,7.636 -5.175,7.636 -3.511,7.016 -3.51,7.017 -3.058,8.347 -3.058,8.348 -1.922,5.88 -1.921,5.881 v 0.869 0.87 l 11.25,0.012 11.25,0.013 27.5,1.452 27.5,1.453 12.5,1.029 12.5,1.028 4,0.463 4,0.464 10,1.09 10,1.09 8.5,1.028 8.5,1.028 17,2.402 17,2.402 12,2.081 12,2.081 20.5,4.052 20.5,4.053 4,0.82 4,0.82 16.5,4.037 16.5,4.036 13.305,3.533 13.305,3.533 h 0.445 0.445 V 736.083 588.167 l -0.75,-0.334 -0.75,-0.333 -3,-3.996 -3,-3.996 -2.089,-3.062 -2.089,-3.061 -2.384,-2.942 -2.384,-2.943 -9.527,-9.577 -9.527,-9.578 -7.632,-5.123 -7.631,-5.123 -3.869,-2.216 -3.868,-2.216 -5.763,-2.832 -5.763,-2.832 -8.737,-2.953 -8.737,-2.952 -10.5,-1.975 -10.5,-1.975 -9,-0.402 -9,-0.402 -5,0.347 M 757,861.937 l -6.5,0.801 -9.776,2.103 -9.776,2.103 -10.539,3.564 -10.538,3.563 -12.034,6.214 -12.033,6.215 -10.256,7.698 -10.256,7.697 -8.42,8.303 -8.419,8.302 -4.08,5 -4.08,5 -6.015,9 -6.014,9 -4.082,8.5 -4.081,8.5 -3.922,12 -3.923,12 -1.756,7 -1.756,7 -0.461,4.635 -0.461,4.636 5.339,1.061 5.339,1.061 4.5,1.099 4.5,1.099 4,1 4,1 3.5,0.86 3.5,0.859 11,3.007 11,3.007 6,1.639 6,1.638 8.457,2.449 8.457,2.45 h 2.245 2.245 l 11.798,-4.036 11.798,-4.036 20.5,-6.946 20.5,-6.946 13,-4.443 13,-4.444 16,-5.496 16,-5.496 20.5,-7.13 20.5,-7.129 14.5,-4.913 14.5,-4.913 17.209,-5.952 17.209,-5.952 1.08,-0.667 1.08,-0.667 -2.394,-4.167 -2.394,-4.167 -3.395,-5.505 -3.395,-5.504 -3,-3.982 -3,-3.981 -2.5,-3.004 -2.5,-3.004 -7.5,-7.874 -7.5,-7.873 -8,-6.225 -8,-6.224 -6,-4.02 -6,-4.019 -7.5,-3.946 -7.5,-3.947 -8,-3.141 -8,-3.142 -7,-1.927 -7,-1.927 -5.5,-1.147 -5.5,-1.146 -4.5,-0.984 -4.5,-0.985 -16.5,-0.428 -16.5,-0.428 -6.5,0.8"
     stroke="none"
     fill="#ffffff"
     fill-rule="evenodd"
     id="path3502"
     sodipodi:nodetypes="cccccccccccccccccccccccccccccccccccccccccccccccccccccccccccccccccccccccccccccccccccccccccccccccccccccccccccccccccccccccccccccccccccccccccccccccccccccccccccccccccccccccccccccccccccccccccccccccccccccccccccccccccccccccccccccccccccccccccccccccccccccccccccccccccccccccccccccccccccccccccccccccccccccccccccccccccccccccccccccccccccccccccccccccccccccccccccccccccccccccccccccccccccccccc" />
  <path
     d="m 1411,1164.144 -14.5,0.754 -11,1.015 -11,1.015 -5,0.554 -5,0.554 -3.5,0.543 -3.5,0.543 -6.5,0.927 -6.5,0.927 -5,1.016 -5,1.016 -6,0.975 -6,0.976 -4.5,1.023 -4.5,1.023 -5,0.995 -5,0.995 -4,0.936 -4,0.936 -4,1.018 -4,1.017 -0.24,0.076 -0.239,0.077 -1.261,0.391 -1.26,0.392 -3,0.635 -3,0.634 -4,0.871 -4,0.871 -3.5,1.007 -3.5,1.006 -8,2.138 -8,2.138 -3,0.812 -3,0.813 -4.5,1.539 -4.5,1.539 -5.5434,1.3501 C 1101.9146,1240.9795 973.67023,1302.0906 872.5,1347.228 l -4.5,1.991 c -8.40402,3.2833 -17.18659,6.7842 -24.06317,10.7781 171.10447,0 350.10937,0.018 497.56317,0 h 494.506 l -0.01,-57.342 v -57.343 c -121.3166,-59.6877 -236.2657,-82.7795 -374,-82.104 l -36.5,0.179 -14.5,0.754"
     stroke="none"
     fill="#5db852"
     fill-rule="evenodd"
     id="path3506"
     sodipodi:nodetypes="ccccccccccccccccccccccccccccccccccccccccccccccccc" />
  <path
     d="M 1394.2925,841.84782 C 1360.6661,838.84039 1303.6574,851.41916 1264,862 c -217.6352,39.07787 -396.03579,114.09092 -567.851,171.716 175.80385,62.7633 338.1298,155.2993 519.351,166.535 8.8006,-0.1 3.7731,1.5475 12,-0.914 74.5877,-21.9324 125.5913,-32.1416 199,-35.998 162.3521,1.2572 271.7622,18.5735 408.793,81.701 l 0.353,-0.353 0.354,-0.353 -0.081,-178.417 -0.08,-178.417 -0.086,-1.75 -0.086,-1.75 h -0.32 -0.32 C 1734.7684,856.51702 1631.4056,842.023 1527.5,840.643"
     stroke="none"
     fill="#91c647"
     fill-rule="evenodd"
     id="path3508"
     sodipodi:nodetypes="cccccccccccccccc" />
  <path
     d="m 0,233 v 233 h 0.453 0.453 l 2.797,-1.141 2.797,-1.14 3.216,-1.39 3.216,-1.39 6.284,-2.081 6.284,-2.081 3.5,-0.816 3.5,-0.815 6.5,-1.448 6.5,-1.448 10.125,-1.271 10.126,-1.271 16.124,0.515 16.125,0.514 0.035,-14.118 0.036,-14.119 1.384,-8.5 1.383,-8.5 1.023,-5.5 1.023,-5.5 1.608,-5.5 1.608,-5.5 1.067,-3 1.067,-3 1.5,-3.5 1.5,-3.5 2.912,-6 2.912,-6 1.727,-3 1.728,-3 5.871,-9 5.872,-9 0.627,-0.5 0.628,-0.5 2.976,-3.987 2.977,-3.987 9.018,-9.072 9.018,-9.072 4,-2.935 4,-2.936 0.5,-0.59 0.5,-0.59 9.433,-6.314 9.433,-6.314 10.067,-4.763 10.067,-4.763 9,-2.994 9,-2.993 6.964,-1.695 6.963,-1.695 10.537,-1.392 10.536,-1.391 8.026,-0.009 8.026,-0.008 8.474,0.999 8.474,0.999 6.5,1.109 6.5,1.11 9,2.519 9,2.518 7.5,2.959 7.5,2.958 9,4.63 9,4.63 1,0.811 1,0.811 5,3.186 5,3.187 0.5,0.573 0.5,0.573 7.5,6.087 7.5,6.087 7.5,7.984 7.5,7.984 4.617,5.941 4.616,5.942 4.123,6.786 4.123,6.786 3.08,6.666 3.081,6.665 0.833,2 0.832,2 2.077,5.5 2.077,5.5 1.61,6 1.609,6 1.905,9 1.905,9 1.006,13 1.005,13 -0.563,9 -0.564,9 -1.006,5 -1.005,5 -1.487,6.5 -1.487,6.5 -2.064,6.5 -2.064,6.5 -1.43,3.5 -1.43,3.5 -6.114,12.5 -6.114,12.5 -3.835,5.821 -3.836,5.82 c 4.12934,2.34275 9.80144,7.16213 14.794,10.508 l 12.706,7.649 3.5,2.562 3.5,2.562 8.452,7.039 8.452,7.039 2.917,3 2.917,3 3.631,4.49 3.631,4.489 1.879,2.011 1.879,2.01 4.86,7.5 4.861,7.5 0.761,1 0.76,1 4.145,8.5 4.145,8.5 2.105,5.383 2.105,5.384 v 1.807 1.808 l 0.885,0.547 0.884,0.547 0.503,2.762 0.503,2.762 1.494,5.5 1.494,5.5 1.102,6.5 1.103,6.5 1.016,9.068 1.016,9.067 -0.008,6.433 -0.008,6.432 -1.46,11.5 -1.46,11.5 -2.52,9.833 -2.521,9.833 -1.584,4.667 -1.584,4.667 -1.497,3.5 -1.498,3.5 -3.539,7.5 -3.539,7.5 -3.829,6.569 -3.83,6.569 -4.711,6.431 -4.711,6.431 -12.101,12.005 -12.1,12.006 -8.659,6.238 -8.66,6.237 -8.34,4.81 -8.341,4.81 -1.856,0.706 -1.856,0.707 0.738,2.74 0.737,2.741 0.748,3.5 0.748,3.5 1.625,8 1.625,8 0.983,5.5 0.983,5.5 0.98,7.5 0.981,7.5 0.631,14 0.631,14 0.271,3.787 0.272,3.787 0.389,0.389 0.389,0.389 12.53,2.537 12.53,2.537 11.592,2.989 11.592,2.989 7.243,2.531 7.243,2.53 4.126,1.75 4.125,1.75 13,6.418 13,6.419 15,9.938 15,9.938 1.66,1.911 1.661,1.911 h 1.089 1.09 v 1 1 c 20.06233,4.1664 37.86647,8.2696 56.96219,12.7626 l 0.31581,-5.0126 0.48,-4.25 1.749,-7 1.749,-7 3.923,-12 3.922,-12 4.081,-8.5 4.082,-8.5 6.014,-9 6.015,-9 4.08,-5 4.08,-5 8.419,-8.302 8.42,-8.303 10.256,-7.697 10.256,-7.698 12.033,-6.215 12.034,-6.214 10.479,-3.543 10.479,-3.544 12.336,-2.693 12.335,-2.693 19.5,-0.008 19.5,-0.007 6,1.257 6,1.256 5,1.096 5,1.096 7,1.91 7,1.911 8,3.142 8,3.141 7.5,3.939 7.5,3.939 9,6.115 9,6.115 2.955,2.5 2.956,2.5 5.006,4.5 5.005,4.5 2.039,2.003 2.039,2.004 4.482,5.496 4.482,5.497 1.768,1.617 1.768,1.618 v 0.804 0.804 l 1.536,1.697 1.536,1.697 3.609,5.881 3.609,5.882 2.441,4.25 2.44,4.25 c 226.3295,-68.15249 369.751,-106.71809 593.6519,-113.28799 l 1.9061,-7.53501 2.083,-6.677 3.073,-8.348 3.074,-8.347 3.51,-7.017 3.511,-7.016 5.175,-7.636 5.176,-7.636 0.584,-0.5 0.585,-0.5 4.449,-5 4.449,-5 6.551,-5.869 6.551,-5.868 8.761,-5.915 8.76,-5.914 6.99,-3.508 6.989,-3.507 v -0.388 -0.388 l -1.274,-1.322 -1.274,-1.321 -3.202,-4.885 -3.202,-4.886 -1.268,-2.864 -1.268,-2.865 h -0.756 -0.756 v -1.313 -1.313 l -2.619,-5.428 -2.618,-5.428 -1.924,-6.009 -1.923,-6.009 -2.606,-10 -2.605,-10 -0.056,-16 -0.056,-16 1.77,-10 1.77,-10 3.466,-10.5 3.467,-10.5 2.049,-4.5 2.049,-4.5 4.114,-7 4.115,-7 2.997,-4 2.997,-4 5.462,-6.331 5.462,-6.331 8.095,-6.764 8.094,-6.764 7.5,-5.01 7.5,-5.01 6.5,-3.025 6.5,-3.026 5.5,-2.016 5.5,-2.015 5.5,-1.601 5.5,-1.6 9,-1.602 9,-1.603 14,0.033 c 51.2266,0.69138 99.1226,39.18549 121,70.14 l 0.6038,0.0816 0.9057,0.0842 c 0.1339,-98.15489 0.407,-196.99872 0.6255,-295.39083 L 1837.284,0 H 918.642 0 v 233 m 0.492,0.5 v 233 L 0.75,349.67 1.008,232.84 0.75,116.67 0.492,0.5 v 233"
     stroke="none"
     fill="#5fc9fb"
     fill-rule="evenodd"
     id="path3510"
     sodipodi:nodetypes="cccccccccccccccccccccccccccccccccccccccccccccccccccccccccccccccccccccccccccccccccccccccccccccccccccccccccccccccccccccccccccccccccccccccccccccccccccccccccccccccccccccccccccccccccccccccccccccccccccccccccccccccccccccccccccccccccccccccccccccccccccccccccccccccccccccccccccccccccccccccccccccccccccccccccccccccccccccccccccccccccccccccccccc" />
</svg>
